<svg xmlns="http://www.w3.org/2000/svg" width="58" height="58" viewBox="0 0 58 58" fill="none"><g clip-path="url(#clip0_1_14885)"><path d="M28.4747 49.0273C28.264 48.8166 27.9718 48.6953 27.6738 48.6953C27.3759 48.6953 27.0836 48.8165 26.8729 49.0273C26.6622 49.2379 26.541 49.5302 26.541 49.8281C26.541 50.1273 26.6622 50.4183 26.8729 50.629C27.0836 50.8409 27.3759 50.9609 27.6738 50.9609C27.9718 50.9609 28.264 50.8409 28.4747 50.629C28.6854 50.4183 28.8066 50.1262 28.8066 49.8281C28.8066 49.5302 28.6853 49.2379 28.4747 49.0273Z" fill="#2662FA"></path><path d="M33.869 38.5776V30.2421C33.869 29.8658 33.6821 29.5139 33.3702 29.3034C33.0583 29.0928 32.6622 29.0508 32.313 29.1913L12.7932 37.0527H6.50607C2.91869 37.0527 0 39.9714 0 43.559C0 47.1466 2.91869 50.0653 6.5063 50.0653H7.25497V56.868C7.25497 57.4936 7.76213 58.0008 8.38778 58.0008H13.0124C13.638 58.0008 14.1452 57.4936 14.1452 56.868V50.6117L32.3135 57.919C32.4498 57.9739 32.5933 58.0009 32.7361 58.0009C32.959 58.0009 33.1804 57.9351 33.3704 57.8068C33.6822 57.5962 33.869 57.2443 33.869 56.8681V48.5328C36.1407 48.0159 37.842 45.9812 37.842 43.5552C37.842 41.1293 36.1407 39.0945 33.869 38.5776ZM11.8794 55.7352H9.52059V50.0652H11.8796V55.7352H11.8794ZM11.8797 47.7995H6.5063C4.16795 47.7995 2.26562 45.8972 2.26562 43.559C2.26562 41.2206 4.16795 39.3183 6.5063 39.3183H11.8801L11.8797 47.7995ZM31.6035 55.1914H31.6034L14.1457 48.1699V38.9504L26.5417 33.9581V45.2001C26.5417 45.8256 27.0489 46.3329 27.6746 46.3329C28.3002 46.3329 28.8074 45.8256 28.8074 45.2001V33.0456L31.6035 31.9195V55.1914ZM33.869 46.1589V40.9514C34.8728 41.3898 35.5764 42.3916 35.5764 43.5551C35.5764 44.7186 34.8729 45.7205 33.869 46.1589Z" fill="#2662FA"></path><path d="M48.6481 42.455H42.2344C41.6087 42.455 41.1016 42.9622 41.1016 43.5878C41.1016 44.2133 41.6087 44.7206 42.2344 44.7206H48.6481C49.2738 44.7206 49.7809 44.2133 49.7809 43.5878C49.7809 42.9622 49.2738 42.455 48.6481 42.455Z" fill="#2662FA"></path><path d="M43.3885 34.154C42.9461 33.7117 42.2288 33.7117 41.7863 34.154L39.574 36.3663C39.1316 36.8087 39.1316 37.526 39.574 37.9685C39.7953 38.1896 40.0852 38.3003 40.3751 38.3003C40.665 38.3003 40.955 38.1896 41.1761 37.9685L43.3885 35.7561C43.8308 35.3137 43.8308 34.5964 43.3885 34.154Z" fill="#2662FA"></path><path d="M43.4722 51.3136L41.1859 49.0271C40.7435 48.5849 40.0262 48.5849 39.5837 49.0271C39.1414 49.4695 39.1414 50.1868 39.5837 50.6293L41.8702 52.9157C42.0914 53.1368 42.3813 53.2475 42.6712 53.2475C42.9611 53.2475 43.2511 53.1368 43.4722 52.9157C43.9146 52.4734 43.9146 51.7561 43.4722 51.3136Z" fill="#2662FA"></path><path d="M53.4687 0H32.3984C29.8999 0 27.8671 2.03272 27.8671 4.53124V4.98437H8.83593C7.33677 4.98437 6.11719 6.20406 6.11719 7.70311V25.6015C6.11719 27.1006 7.33677 28.3203 8.83593 28.3203H10.0065V31.7942C10.0065 32.2525 10.2825 32.6655 10.7057 32.8409C10.8459 32.8989 10.993 32.9271 11.139 32.9271C11.4338 32.9271 11.7236 32.812 11.9403 32.5953L16.2153 28.3203H38.7172C40.2164 28.3203 41.4359 27.1006 41.4359 25.6015V22.2031H53.4687C55.9672 22.2031 57.9999 20.1704 57.9999 17.6718V4.53124C57.9998 2.03272 55.9672 0 53.4687 0ZM39.1703 25.6015C39.1703 25.8514 38.9671 26.0546 38.7172 26.0546H15.7461C15.4457 26.0546 15.1575 26.174 14.9451 26.3864L12.2722 29.0594V27.1874C12.2722 26.5619 11.765 26.0546 11.1394 26.0546H8.83593C8.58603 26.0546 8.38281 25.8514 8.38281 25.6015V7.70311C8.38281 7.45321 8.58603 7.24999 8.83593 7.24999H27.8671V17.6718C27.8671 20.1704 29.8999 22.2031 32.3984 22.2031H39.1703V25.6015ZM55.7343 17.6718C55.7343 18.9211 54.7179 19.9375 53.4687 19.9375H32.3984C31.1491 19.9375 30.1328 18.9211 30.1328 17.6718V4.53124C30.1328 3.28198 31.1491 2.26562 32.3984 2.26562H53.4687C54.7179 2.26562 55.7343 3.28198 55.7343 4.53124V17.6718Z" fill="#2662FA"></path><path d="M47.4854 10.1202L39.7324 5.64401C39.3819 5.44158 38.9501 5.44158 38.5996 5.64401C38.2491 5.84633 38.0332 6.22039 38.0332 6.62503V15.5773C38.0332 15.9819 38.2491 16.356 38.5996 16.5583C38.7749 16.6596 38.9704 16.7101 39.166 16.7101C39.3616 16.7101 39.5572 16.6596 39.7324 16.5583L47.4854 12.0821C47.8359 11.8798 48.0518 11.5057 48.0518 11.1011C48.0518 10.6965 47.836 10.3225 47.4854 10.1202ZM40.2988 13.6153V8.58717L44.6533 11.1012L40.2988 13.6153Z" fill="#2662FA"></path><path d="M24.3008 11.8945H12.9727C12.347 11.8945 11.8398 12.4018 11.8398 13.0273C11.8398 13.6529 12.347 14.1602 12.9727 14.1602H24.3008C24.9264 14.1602 25.4336 13.6529 25.4336 13.0273C25.4336 12.4018 24.9264 11.8945 24.3008 11.8945Z" fill="#2662FA"></path><path d="M25.1017 18.5702C24.891 18.3594 24.5987 18.2383 24.3008 18.2383C24.0028 18.2383 23.7106 18.3594 23.4999 18.5702C23.2892 18.7809 23.168 19.0732 23.168 19.3711C23.168 19.669 23.2892 19.9613 23.4999 20.1719C23.7106 20.3826 24.0028 20.5039 24.3008 20.5039C24.5998 20.5039 24.891 20.3827 25.1017 20.1719C25.3124 19.9613 25.4336 19.669 25.4336 19.3711C25.4336 19.0732 25.3124 18.7809 25.1017 18.5702Z" fill="#2662FA"></path><path d="M20.0515 18.2383H12.9727C12.347 18.2383 11.8398 18.7456 11.8398 19.3711C11.8398 19.9966 12.347 20.5039 12.9727 20.5039H20.0515C20.6771 20.5039 21.1843 19.9966 21.1843 19.3711C21.1843 18.7456 20.6771 18.2383 20.0515 18.2383Z" fill="#2662FA"></path></g><defs><clipPath id="clip0_1_14885"><rect width="58" height="58" fill="white"></rect></clipPath></defs></svg>