<svg xmlns="http://www.w3.org/2000/svg" width="58" height="58" viewBox="0 0 58 58" fill="none"><path d="M50.7949 56.2424H12.2161C9.49188 56.2424 7.20703 54.0454 7.20703 51.2333V5.27272C7.20703 3.33939 8.78885 1.75757 10.7222 1.75757H47.1919C49.1252 1.75757 50.707 3.33939 50.707 5.27272V56.2424H50.7949Z" stroke="white" stroke-width="2" stroke-miterlimit="10" stroke-linecap="round" stroke-linejoin="round"></path><path d="M7.20703 51.2333C7.20703 53.9576 9.404 56.2424 12.2161 56.2424H50.707V46.2242H12.2161C9.49188 46.2242 7.20703 48.5091 7.20703 51.2333Z" stroke="white" stroke-width="2" stroke-miterlimit="10" stroke-linecap="round" stroke-linejoin="round"></path><path d="M17.8398 51.2341H40.1611" stroke="white" stroke-width="2" stroke-miterlimit="10" stroke-linecap="round" stroke-linejoin="round"></path><path d="M22.4102 24.3417L35.9435 7.99629C37.4374 6.23872 40.0738 6.06296 41.7435 7.73266C43.3253 9.31447 43.2374 11.7751 41.7435 13.269C41.6556 13.3569 24.8708 27.2417 24.8708 27.2417" stroke="white" stroke-width="2" stroke-miterlimit="10" stroke-linecap="round" stroke-linejoin="round"></path><path d="M23.7293 31.1087C21.796 32.6905 15.1172 33.745 15.1172 33.745C15.1172 33.745 17.6657 30.5814 18.1051 26.539C18.3687 24.4299 21.6202 23.0238 23.7293 25.1329C25.399 26.8026 25.5748 29.6147 23.7293 31.1087Z" stroke="white" stroke-width="2" stroke-miterlimit="10" stroke-linecap="round" stroke-linejoin="round"></path><path d="M40.6029 27.5054L36.3848 31.8114L42.6242 33.7448L40.6029 27.5054Z" stroke="white" stroke-width="2" stroke-miterlimit="10" stroke-linecap="round" stroke-linejoin="round"></path><path d="M28.6504 24.0774L36.3837 31.8107L40.6019 27.5047L33.5716 20.4744" stroke="white" stroke-width="2" stroke-miterlimit="10" stroke-linecap="round" stroke-linejoin="round"></path><path d="M29.1778 16.1684L19.5112 6.5896C17.3142 7.29263 15.996 8.69869 15.293 10.8078L25.3112 20.7381" stroke="white" stroke-width="2" stroke-miterlimit="10" stroke-linecap="round" stroke-linejoin="round"></path><path d="M22.1476 9.13843L17.9294 13.3566L16.4355 14.8505C15.7324 15.5536 15.7324 16.6081 16.4355 17.3112L19.5991 20.4748" stroke="white" stroke-width="2" stroke-miterlimit="10" stroke-linecap="round" stroke-linejoin="round"></path><path d="M22.3242 37.4353H35.9454" stroke="white" stroke-width="2" stroke-miterlimit="10" stroke-linecap="round" stroke-linejoin="round"></path><path d="M15.3809 41.3903H42.8869" stroke="white" stroke-width="2" stroke-miterlimit="10" stroke-linecap="round" stroke-linejoin="round"></path></svg>